<?xml version="1.0" standalone="no"?>
<!DOCTYPE svg PUBLIC "-//W3C//DTD SVG 20010904//EN"
 "http://www.w3.org/TR/2001/REC-SVG-20010904/DTD/svg10.dtd">
<svg version="1.0" xmlns="http://www.w3.org/2000/svg"
 width="720.000000pt" height="410.000000pt" viewBox="0 0 720.000000 410.000000"
 preserveAspectRatio="xMidYMid meet">

<g transform="translate(0.000000,410.000000) scale(0.100000,-0.100000)"
fill="#000000" stroke="none">
<path d="M2840 3935 c-8 -2 -48 -9 -88 -15 -40 -7 -71 -14 -69 -16 2 -3 46 2
98 11 118 19 183 19 307 0 165 -25 314 -85 451 -183 l74 -53 31 23 c157 116
300 180 477 212 42 8 61 14 43 15 -53 2 -218 -45 -309 -88 -48 -22 -122 -65
-165 -96 l-79 -55 -63 48 c-128 96 -288 162 -458 187 -85 13 -208 18 -250 10z"/>
<path d="M4248 3933 c23 -2 61 -2 85 0 23 2 4 4 -43 4 -47 0 -66 -2 -42 -4z"/>
<path d="M4452 3915 c218 -37 412 -137 569 -296 166 -168 268 -368 313 -614 8
-44 15 -66 15 -50 1 44 -33 190 -64 270 -108 287 -334 525 -602 634 -87 36
-226 71 -272 70 -24 -1 -9 -6 41 -14z"/>
<path d="M2573 3871 c-88 -35 -190 -90 -252 -137 -116 -87 -256 -250 -305
-354 -18 -38 -13 -32 55 74 119 186 308 334 529 417 41 15 68 28 60 28 -8 0
-47 -12 -87 -28z"/>
<path d="M3098 3559 c-16 -11 -28 -25 -28 -30 0 -5 9 0 20 11 11 11 29 20 41
20 11 0 17 5 14 10 -9 14 -16 12 -47 -11z"/>
<path d="M3432 3563 c-41 -16 -54 -125 -65 -543 -6 -233 -1 -175 18 195 13
253 17 293 33 315 27 36 65 38 91 4 11 -15 21 -22 21 -17 0 5 -10 19 -23 31
-22 21 -48 26 -75 15z"/>
<path d="M3725 3545 l-25 -24 2 -798 3 -798 5 803 c5 781 6 804 24 818 33 24
64 17 86 -18 11 -18 20 -28 20 -22 0 6 -9 23 -21 38 -26 33 -62 34 -94 1z"/>
<path d="M4061 3544 c-20 -26 -21 -37 -19 -328 l2 -301 6 306 c5 326 7 339 55
339 36 0 54 -30 58 -95 l3 -60 2 61 c2 52 -1 64 -21 82 -31 29 -61 28 -86 -4z"/>
<path d="M3169 3538 c10 -13 14 -165 18 -665 3 -356 8 -651 12 -655 3 -4 3
288 -1 649 -6 611 -7 657 -24 672 -17 15 -17 15 -5 -1z"/>
<path d="M3063 3430 c0 -47 2 -66 4 -42 2 23 2 61 0 85 -2 23 -4 4 -4 -43z"/>
<path d="M3535 2700 c0 -443 1 -624 2 -403 2 222 2 584 0 805 -1 222 -2 41 -2
-402z"/>
<path d="M3847 3325 c3 -93 9 -228 13 -300 7 -106 7 -94 3 65 -3 107 -9 242
-13 300 -6 80 -7 64 -3 -65z"/>
<path d="M4175 3245 c10 -295 30 -657 33 -620 4 45 -27 725 -34 740 -2 6 -2
-48 1 -120z"/>
<path d="M1977 3308 c-27 -58 -47 -110 -47 -122 0 -6 16 25 35 68 19 44 33 81
31 83 -2 2 -10 -11 -19 -29z"/>
<path d="M3048 3190 c-4 -69 -10 -204 -12 -300 -5 -172 -5 -171 9 65 8 132 14
267 12 300 -1 40 -4 18 -9 -65z"/>
<path d="M1912 3131 c-7 -21 -12 -45 -11 -52 0 -8 7 8 15 35 9 26 13 50 11 52
-2 2 -9 -13 -15 -35z"/>
<path d="M1892 3040 c0 -14 2 -19 5 -12 2 6 2 18 0 25 -3 6 -5 1 -5 -13z"/>
<path d="M1876 2964 c-8 -61 -7 -278 2 -328 4 -21 7 54 7 168 0 113 -1 206 -1
206 -1 0 -4 -21 -8 -46z"/>
<path d="M4041 2894 c0 -11 3 -14 6 -6 3 7 2 16 -1 19 -3 4 -6 -2 -5 -13z"/>
<path d="M5354 2805 c0 -60 1 -84 3 -52 2 32 2 81 0 110 -2 29 -3 3 -3 -58z"/>
<path d="M3874 2780 c0 -52 1 -74 3 -47 2 26 2 68 0 95 -2 26 -3 4 -3 -48z"/>
<path d="M4042 2845 c0 -16 2 -22 5 -12 2 9 2 23 0 30 -3 6 -5 -1 -5 -18z"/>
<path d="M3345 2628 c-4 -90 -5 -176 -3 -193 2 -16 7 55 12 158 4 104 6 191 3
193 -3 3 -8 -68 -12 -158z"/>
<path d="M3023 2600 c0 -47 2 -66 4 -42 2 23 2 61 0 85 -2 23 -4 4 -4 -43z"/>
<path d="M5327 2583 c-41 -223 -141 -421 -294 -578 -32 -33 -303 -274 -602
-535 -638 -556 -611 -534 -611 -523 1 31 66 100 204 215 146 121 216 194 216
222 0 6 -14 -10 -31 -36 -20 -30 -93 -99 -195 -184 -145 -119 -168 -143 -195
-196 -17 -33 -29 -61 -27 -63 3 -3 710 612 1109 965 107 95 176 165 222 226
111 147 190 328 217 497 18 111 8 103 -13 -10z"/>
<path d="M3887 2480 c3 -102 8 -188 12 -192 7 -8 3 102 -9 267 -7 87 -7 72 -3
-75z"/>
<path d="M4032 2257 c-2 -277 -5 -355 -16 -382 -17 -40 -37 -44 -66 -15 -23
23 -29 44 -33 120 l-3 55 -2 -62 c-2 -74 8 -106 42 -128 36 -24 64 -11 76 35
6 24 9 167 7 382 l-2 343 -3 -348z"/>
<path d="M1896 2550 c6 -42 32 -126 33 -105 0 6 -8 42 -19 80 -15 53 -18 59
-14 25z"/>
<path d="M4214 2475 c0 -55 1 -76 3 -47 2 29 2 74 0 100 -2 26 -3 2 -3 -53z"/>
<path d="M3006 2353 c-3 -82 -8 -218 -10 -303 l-4 -155 8 120 c12 181 23 485
18 485 -3 0 -8 -66 -12 -147z"/>
<path d="M1935 2410 c14 -50 94 -209 132 -266 22 -33 62 -84 89 -113 27 -30
335 -305 685 -612 603 -527 636 -554 622 -513 -17 49 -27 59 -17 16 l7 -27
-39 36 c-22 20 -307 270 -634 556 -383 334 -613 542 -646 584 -67 84 -126 183
-165 278 -32 79 -47 104 -34 61z"/>
<path d="M3334 2300 c0 -52 1 -74 3 -47 2 26 2 68 0 95 -2 26 -3 4 -3 -48z"/>
<path d="M4223 2285 c0 -49 3 -139 7 -200 l7 -110 0 100 c0 55 -3 145 -7 200
l-7 100 0 -90z"/>
<path d="M3904 2185 c0 -49 1 -71 3 -48 2 23 2 64 0 90 -2 26 -3 8 -3 -42z"/>
<path d="M3324 2090 c0 -52 1 -74 3 -47 2 26 2 68 0 95 -2 26 -3 4 -3 -48z"/>
<path d="M3204 2030 c0 -52 1 -74 3 -47 2 26 2 68 0 95 -2 26 -3 4 -3 -48z"/>
<path d="M3312 1939 c-1 -30 -10 -56 -24 -74 -14 -18 -17 -26 -7 -23 23 7 40
55 36 101 l-4 42 -1 -46z"/>
<path d="M4243 1860 c0 -47 2 -66 4 -42 2 23 2 61 0 85 -2 23 -4 4 -4 -43z"/>
<path d="M3201 1905 c-1 -36 23 -75 47 -74 13 0 11 3 -5 9 -12 5 -25 19 -27
32 -3 13 -7 32 -9 43 -3 13 -5 9 -6 -10z"/>
<path d="M3690 1906 c0 -22 -53 -76 -75 -76 -9 0 -30 13 -46 29 -16 16 -29 26
-29 21 0 -12 59 -60 73 -60 25 0 77 41 83 65 3 14 4 29 0 32 -3 4 -6 -2 -6
-11z"/>
<path d="M2984 1780 c0 -52 1 -74 3 -47 2 26 2 68 0 95 -2 26 -3 4 -3 -48z"/>
<path d="M4254 1588 c1 -91 4 -147 9 -135 10 27 9 151 -1 232 -6 45 -8 21 -8
-97z"/>
<path d="M3050 1650 c-6 -30 -10 -66 -7 -80 3 -19 5 -17 6 11 0 20 6 50 12 67
6 17 9 37 6 44 -2 7 -10 -12 -17 -42z"/>
<path d="M2964 1624 c-11 -95 2 -181 38 -254 31 -61 45 -75 216 -211 101 -80
192 -159 203 -175 10 -16 19 -23 19 -16 0 22 -60 77 -220 202 -223 175 -261
240 -246 428 7 93 1 110 -10 26z"/>
<path d="M3074 1612 c14 -83 125 -263 237 -385 39 -43 68 -77 64 -77 -16 0
-108 52 -159 89 -97 72 -150 153 -166 256 -7 46 -8 47 -9 13 -3 -97 79 -217
209 -303 52 -35 167 -94 183 -95 1 0 -38 41 -87 92 -107 112 -206 259 -247
364 -16 44 -27 64 -25 46z"/>
<path d="M2290 619 c-70 -29 -96 -104 -87 -245 8 -130 45 -174 147 -174 111 0
144 49 144 210 0 118 -15 167 -59 196 -31 21 -110 28 -145 13z m86 -81 c4 -6
7 -63 7 -125 0 -91 -3 -117 -16 -130 -25 -25 -45 -9 -53 42 -7 53 -1 195 10
213 9 15 43 15 52 0z"/>
<path d="M3223 616 c-60 -27 -87 -103 -60 -168 13 -30 29 -44 87 -73 68 -34
71 -37 68 -68 -2 -25 -8 -33 -26 -35 -18 -3 -26 3 -35 27 -11 29 -15 31 -59
31 -47 0 -48 -1 -48 -31 0 -66 45 -99 137 -99 97 0 146 42 146 124 0 63 -22
90 -104 131 -63 32 -70 38 -67 63 2 21 8 27 28 27 18 0 26 -6 28 -22 3 -20 9
-23 53 -23 48 0 49 1 49 30 0 18 -10 41 -27 60 -23 26 -37 32 -83 36 -36 3
-66 -1 -87 -10z"/>
<path d="M1886 585 c3 -19 23 -112 43 -206 l36 -171 68 0 c38 0 70 1 72 3 4 5
85 380 85 397 0 8 -18 12 -55 12 -62 0 -53 22 -81 -180 -9 -63 -17 -116 -18
-118 -2 -1 -11 55 -20 125 -25 189 -17 173 -82 173 l-55 0 7 -35z"/>
<path d="M2540 413 l0 -208 122 2 123 2 3 40 3 40 -73 3 -73 3 0 40 0 40 63 0
62 0 0 43 0 42 -65 0 -65 0 0 35 0 35 70 0 70 0 0 45 0 45 -120 0 -120 0 0
-207z"/>
<path d="M2830 413 l0 -208 109 3 c104 3 109 4 136 32 32 33 48 127 38 230
-11 126 -42 150 -188 150 l-95 0 0 -207z m159 113 c8 -9 11 -51 9 -121 -3
-113 -13 -137 -52 -122 -14 5 -16 25 -16 132 0 125 0 125 24 125 13 0 29 -6
35 -14z"/>
<path d="M3472 414 l3 -205 123 -2 122 -2 0 43 0 42 -71 0 -70 0 3 43 3 42 60
1 60 1 3 41 3 42 -65 0 -66 0 0 35 0 35 70 0 70 0 0 45 0 45 -125 0 -125 0 2
-206z"/>
<path d="M3762 414 l3 -205 120 0 120 -1 3 41 3 40 -68 3 -68 3 -3 163 -2 162
-55 0 -55 0 2 -206z"/>
<path d="M4040 413 l0 -208 107 3 c124 4 150 15 170 75 16 48 7 92 -26 119
l-26 22 22 23 c33 32 32 102 -1 140 -23 27 -28 28 -135 31 l-111 4 0 -209z
m160 107 c14 -27 -4 -60 -33 -60 -20 0 -22 5 -22 40 0 35 2 40 22 40 12 0 27
-9 33 -20z m8 -178 c4 -39 -13 -64 -41 -60 -16 2 -19 12 -21 51 -2 48 -2 48
29 45 26 -3 30 -7 33 -36z"/>
<path d="M4437 613 c-6 -9 -97 -387 -97 -400 0 -5 24 -8 53 -7 51 2 52 3 61
38 9 34 11 36 53 36 40 0 43 -2 43 -27 0 -41 10 -48 68 -48 28 0 52 5 52 10
-1 6 -22 98 -49 205 l-48 195 -65 3 c-37 2 -68 -1 -71 -5z m93 -235 c0 -13 -8
-18 -29 -18 l-28 0 8 48 c23 127 21 124 35 52 7 -36 13 -73 14 -82z"/>
<path d="M4692 414 l3 -207 48 -1 47 -1 0 119 c0 66 3 117 6 113 3 -3 20 -56
38 -118 l31 -112 58 0 58 1 0 203 0 204 -51 3 -50 3 -1 -118 -1 -118 -32 115
-32 115 -62 3 -62 3 2 -207z"/>
<path d="M5032 414 l3 -207 50 0 50 0 5 61 c5 55 14 82 24 71 2 -2 17 -33 33
-69 l29 -65 57 1 c31 1 57 4 57 8 0 3 -24 55 -54 115 l-55 108 49 84 c27 46
50 87 50 92 0 4 -25 7 -55 7 l-55 0 -39 -77 -40 -78 -1 78 0 77 -55 0 -55 0 2
-206z"/>
</g>
</svg>
